<mxfile host="app.diagrams.net" modified="2020-11-11T13:59:00.787Z" agent="5.0 (X11)" etag="VRZt5I98trpXeWZimGpY" version="13.8.8" type="github">
  <diagram id="hZDSW_HOKCULCPWgvv6r" name="Page-1">
    <mxGraphModel dx="1354" dy="783" grid="1" gridSize="10" guides="1" tooltips="1" connect="1" arrows="1" fold="1" page="1" pageScale="1" pageWidth="850" pageHeight="1400" math="1" shadow="0">
      <root>
        <mxCell id="0" />
        <mxCell id="1" parent="0" />
        <mxCell id="525DgajzJBLlcjMBCuLn-1" value="" style="shape=table;html=1;whiteSpace=wrap;startSize=0;container=1;collapsible=0;childLayout=tableLayout;" vertex="1" parent="1">
          <mxGeometry x="60" y="190" width="730" height="160" as="geometry" />
        </mxCell>
        <mxCell id="525DgajzJBLlcjMBCuLn-38" style="shape=partialRectangle;html=1;whiteSpace=wrap;collapsible=0;dropTarget=0;pointerEvents=0;fillColor=none;top=0;left=0;bottom=0;right=0;points=[[0,0.5],[1,0.5]];portConstraint=eastwest;" vertex="1" parent="525DgajzJBLlcjMBCuLn-1">
          <mxGeometry width="730" height="40" as="geometry" />
        </mxCell>
        <mxCell id="525DgajzJBLlcjMBCuLn-66" style="shape=partialRectangle;html=1;whiteSpace=wrap;connectable=0;fillColor=#dae8fc;top=0;left=0;bottom=0;right=0;overflow=hidden;strokeColor=#6c8ebf;" vertex="1" parent="525DgajzJBLlcjMBCuLn-38">
          <mxGeometry width="46" height="40" as="geometry" />
        </mxCell>
        <mxCell id="525DgajzJBLlcjMBCuLn-62" style="shape=partialRectangle;html=1;whiteSpace=wrap;connectable=0;fillColor=#dae8fc;top=0;left=0;bottom=0;right=0;overflow=hidden;strokeColor=#6c8ebf;" vertex="1" parent="525DgajzJBLlcjMBCuLn-38">
          <mxGeometry x="46" width="45" height="40" as="geometry" />
        </mxCell>
        <mxCell id="525DgajzJBLlcjMBCuLn-58" style="shape=partialRectangle;html=1;whiteSpace=wrap;connectable=0;fillColor=#dae8fc;top=0;left=0;bottom=0;right=0;overflow=hidden;strokeColor=#6c8ebf;" vertex="1" parent="525DgajzJBLlcjMBCuLn-38">
          <mxGeometry x="91" width="46" height="40" as="geometry" />
        </mxCell>
        <mxCell id="525DgajzJBLlcjMBCuLn-54" style="shape=partialRectangle;html=1;whiteSpace=wrap;connectable=0;fillColor=#dae8fc;top=0;left=0;bottom=0;right=0;overflow=hidden;strokeColor=#6c8ebf;" vertex="1" parent="525DgajzJBLlcjMBCuLn-38">
          <mxGeometry x="137" width="46" height="40" as="geometry" />
        </mxCell>
        <mxCell id="525DgajzJBLlcjMBCuLn-50" style="shape=partialRectangle;html=1;whiteSpace=wrap;connectable=0;fillColor=#dae8fc;top=0;left=0;bottom=0;right=0;overflow=hidden;strokeColor=#6c8ebf;" vertex="1" parent="525DgajzJBLlcjMBCuLn-38">
          <mxGeometry x="183" width="45" height="40" as="geometry" />
        </mxCell>
        <mxCell id="525DgajzJBLlcjMBCuLn-39" style="shape=partialRectangle;html=1;whiteSpace=wrap;connectable=0;fillColor=#dae8fc;top=0;left=0;bottom=0;right=0;overflow=hidden;strokeColor=#6c8ebf;" vertex="1" parent="525DgajzJBLlcjMBCuLn-38">
          <mxGeometry x="228" width="46" height="40" as="geometry" />
        </mxCell>
        <mxCell id="525DgajzJBLlcjMBCuLn-40" style="shape=partialRectangle;html=1;whiteSpace=wrap;connectable=0;fillColor=#dae8fc;top=0;left=0;bottom=0;right=0;overflow=hidden;strokeColor=#6c8ebf;" vertex="1" parent="525DgajzJBLlcjMBCuLn-38">
          <mxGeometry x="274" width="45" height="40" as="geometry" />
        </mxCell>
        <mxCell id="525DgajzJBLlcjMBCuLn-41" style="shape=partialRectangle;html=1;whiteSpace=wrap;connectable=0;fillColor=#dae8fc;top=0;left=0;bottom=0;right=0;overflow=hidden;strokeColor=#6c8ebf;" vertex="1" parent="525DgajzJBLlcjMBCuLn-38">
          <mxGeometry x="319" width="46" height="40" as="geometry" />
        </mxCell>
        <mxCell id="525DgajzJBLlcjMBCuLn-42" style="shape=partialRectangle;html=1;whiteSpace=wrap;connectable=0;fillColor=#dae8fc;top=0;left=0;bottom=0;right=0;overflow=hidden;strokeColor=#6c8ebf;" vertex="1" parent="525DgajzJBLlcjMBCuLn-38">
          <mxGeometry x="365" width="46" height="40" as="geometry" />
        </mxCell>
        <mxCell id="525DgajzJBLlcjMBCuLn-43" style="shape=partialRectangle;html=1;whiteSpace=wrap;connectable=0;fillColor=#dae8fc;top=0;left=0;bottom=0;right=0;overflow=hidden;strokeColor=#6c8ebf;" vertex="1" parent="525DgajzJBLlcjMBCuLn-38">
          <mxGeometry x="411" width="45" height="40" as="geometry" />
        </mxCell>
        <mxCell id="525DgajzJBLlcjMBCuLn-44" style="shape=partialRectangle;html=1;whiteSpace=wrap;connectable=0;fillColor=#dae8fc;top=0;left=0;bottom=0;right=0;overflow=hidden;strokeColor=#6c8ebf;" vertex="1" parent="525DgajzJBLlcjMBCuLn-38">
          <mxGeometry x="456" width="46" height="40" as="geometry" />
        </mxCell>
        <mxCell id="525DgajzJBLlcjMBCuLn-45" style="shape=partialRectangle;html=1;whiteSpace=wrap;connectable=0;fillColor=#dae8fc;top=0;left=0;bottom=0;right=0;overflow=hidden;strokeColor=#6c8ebf;" vertex="1" parent="525DgajzJBLlcjMBCuLn-38">
          <mxGeometry x="502" width="46" height="40" as="geometry" />
        </mxCell>
        <mxCell id="525DgajzJBLlcjMBCuLn-46" style="shape=partialRectangle;html=1;whiteSpace=wrap;connectable=0;fillColor=#dae8fc;top=0;left=0;bottom=0;right=0;overflow=hidden;strokeColor=#6c8ebf;" vertex="1" parent="525DgajzJBLlcjMBCuLn-38">
          <mxGeometry x="548" width="45" height="40" as="geometry" />
        </mxCell>
        <mxCell id="525DgajzJBLlcjMBCuLn-47" style="shape=partialRectangle;html=1;whiteSpace=wrap;connectable=0;fillColor=#dae8fc;top=0;left=0;bottom=0;right=0;overflow=hidden;strokeColor=#6c8ebf;" vertex="1" parent="525DgajzJBLlcjMBCuLn-38">
          <mxGeometry x="593" width="46" height="40" as="geometry" />
        </mxCell>
        <mxCell id="525DgajzJBLlcjMBCuLn-48" style="shape=partialRectangle;html=1;whiteSpace=wrap;connectable=0;fillColor=#dae8fc;top=0;left=0;bottom=0;right=0;overflow=hidden;strokeColor=#6c8ebf;" vertex="1" parent="525DgajzJBLlcjMBCuLn-38">
          <mxGeometry x="639" width="45" height="40" as="geometry" />
        </mxCell>
        <mxCell id="525DgajzJBLlcjMBCuLn-49" style="shape=partialRectangle;html=1;whiteSpace=wrap;connectable=0;fillColor=#dae8fc;top=0;left=0;bottom=0;right=0;overflow=hidden;strokeColor=#6c8ebf;" vertex="1" parent="525DgajzJBLlcjMBCuLn-38">
          <mxGeometry x="684" width="46" height="40" as="geometry" />
        </mxCell>
        <mxCell id="525DgajzJBLlcjMBCuLn-2" value="" style="shape=partialRectangle;html=1;whiteSpace=wrap;collapsible=0;dropTarget=0;pointerEvents=0;fillColor=none;top=0;left=0;bottom=0;right=0;points=[[0,0.5],[1,0.5]];portConstraint=eastwest;" vertex="1" parent="525DgajzJBLlcjMBCuLn-1">
          <mxGeometry y="40" width="730" height="40" as="geometry" />
        </mxCell>
        <mxCell id="525DgajzJBLlcjMBCuLn-67" style="shape=partialRectangle;html=1;whiteSpace=wrap;connectable=0;fillColor=#d5e8d4;top=0;left=0;bottom=0;right=0;overflow=hidden;strokeColor=#82b366;" vertex="1" parent="525DgajzJBLlcjMBCuLn-2">
          <mxGeometry width="46" height="40" as="geometry" />
        </mxCell>
        <mxCell id="525DgajzJBLlcjMBCuLn-63" style="shape=partialRectangle;html=1;whiteSpace=wrap;connectable=0;fillColor=#d5e8d4;top=0;left=0;bottom=0;right=0;overflow=hidden;strokeColor=#82b366;" vertex="1" parent="525DgajzJBLlcjMBCuLn-2">
          <mxGeometry x="46" width="45" height="40" as="geometry" />
        </mxCell>
        <mxCell id="525DgajzJBLlcjMBCuLn-59" style="shape=partialRectangle;html=1;whiteSpace=wrap;connectable=0;fillColor=#d5e8d4;top=0;left=0;bottom=0;right=0;overflow=hidden;strokeColor=#82b366;" vertex="1" parent="525DgajzJBLlcjMBCuLn-2">
          <mxGeometry x="91" width="46" height="40" as="geometry" />
        </mxCell>
        <mxCell id="525DgajzJBLlcjMBCuLn-55" style="shape=partialRectangle;html=1;whiteSpace=wrap;connectable=0;fillColor=#d5e8d4;top=0;left=0;bottom=0;right=0;overflow=hidden;strokeColor=#82b366;" vertex="1" parent="525DgajzJBLlcjMBCuLn-2">
          <mxGeometry x="137" width="46" height="40" as="geometry" />
        </mxCell>
        <mxCell id="525DgajzJBLlcjMBCuLn-51" style="shape=partialRectangle;html=1;whiteSpace=wrap;connectable=0;fillColor=#d5e8d4;top=0;left=0;bottom=0;right=0;overflow=hidden;strokeColor=#82b366;" vertex="1" parent="525DgajzJBLlcjMBCuLn-2">
          <mxGeometry x="183" width="45" height="40" as="geometry" />
        </mxCell>
        <mxCell id="525DgajzJBLlcjMBCuLn-35" style="shape=partialRectangle;html=1;whiteSpace=wrap;connectable=0;fillColor=#d5e8d4;top=0;left=0;bottom=0;right=0;overflow=hidden;strokeColor=#82b366;" vertex="1" parent="525DgajzJBLlcjMBCuLn-2">
          <mxGeometry x="228" width="46" height="40" as="geometry" />
        </mxCell>
        <mxCell id="525DgajzJBLlcjMBCuLn-32" style="shape=partialRectangle;html=1;whiteSpace=wrap;connectable=0;fillColor=#d5e8d4;top=0;left=0;bottom=0;right=0;overflow=hidden;strokeColor=#82b366;" vertex="1" parent="525DgajzJBLlcjMBCuLn-2">
          <mxGeometry x="274" width="45" height="40" as="geometry" />
        </mxCell>
        <mxCell id="525DgajzJBLlcjMBCuLn-29" style="shape=partialRectangle;html=1;whiteSpace=wrap;connectable=0;fillColor=#d5e8d4;top=0;left=0;bottom=0;right=0;overflow=hidden;strokeColor=#82b366;" vertex="1" parent="525DgajzJBLlcjMBCuLn-2">
          <mxGeometry x="319" width="46" height="40" as="geometry" />
        </mxCell>
        <mxCell id="525DgajzJBLlcjMBCuLn-26" style="shape=partialRectangle;html=1;whiteSpace=wrap;connectable=0;fillColor=#d5e8d4;top=0;left=0;bottom=0;right=0;overflow=hidden;strokeColor=#82b366;" vertex="1" parent="525DgajzJBLlcjMBCuLn-2">
          <mxGeometry x="365" width="46" height="40" as="geometry" />
        </mxCell>
        <mxCell id="525DgajzJBLlcjMBCuLn-23" style="shape=partialRectangle;html=1;whiteSpace=wrap;connectable=0;fillColor=#d5e8d4;top=0;left=0;bottom=0;right=0;overflow=hidden;strokeColor=#82b366;" vertex="1" parent="525DgajzJBLlcjMBCuLn-2">
          <mxGeometry x="411" width="45" height="40" as="geometry" />
        </mxCell>
        <mxCell id="525DgajzJBLlcjMBCuLn-20" style="shape=partialRectangle;html=1;whiteSpace=wrap;connectable=0;fillColor=#d5e8d4;top=0;left=0;bottom=0;right=0;overflow=hidden;strokeColor=#82b366;" vertex="1" parent="525DgajzJBLlcjMBCuLn-2">
          <mxGeometry x="456" width="46" height="40" as="geometry" />
        </mxCell>
        <mxCell id="525DgajzJBLlcjMBCuLn-17" style="shape=partialRectangle;html=1;whiteSpace=wrap;connectable=0;fillColor=#d5e8d4;top=0;left=0;bottom=0;right=0;overflow=hidden;strokeColor=#82b366;" vertex="1" parent="525DgajzJBLlcjMBCuLn-2">
          <mxGeometry x="502" width="46" height="40" as="geometry" />
        </mxCell>
        <mxCell id="525DgajzJBLlcjMBCuLn-14" style="shape=partialRectangle;html=1;whiteSpace=wrap;connectable=0;fillColor=#d5e8d4;top=0;left=0;bottom=0;right=0;overflow=hidden;strokeColor=#82b366;" vertex="1" parent="525DgajzJBLlcjMBCuLn-2">
          <mxGeometry x="548" width="45" height="40" as="geometry" />
        </mxCell>
        <mxCell id="525DgajzJBLlcjMBCuLn-3" value="" style="shape=partialRectangle;html=1;whiteSpace=wrap;connectable=0;fillColor=#d5e8d4;top=0;left=0;bottom=0;right=0;overflow=hidden;strokeColor=#82b366;" vertex="1" parent="525DgajzJBLlcjMBCuLn-2">
          <mxGeometry x="593" width="46" height="40" as="geometry" />
        </mxCell>
        <mxCell id="525DgajzJBLlcjMBCuLn-4" value="" style="shape=partialRectangle;html=1;whiteSpace=wrap;connectable=0;fillColor=#d5e8d4;top=0;left=0;bottom=0;right=0;overflow=hidden;strokeColor=#82b366;" vertex="1" parent="525DgajzJBLlcjMBCuLn-2">
          <mxGeometry x="639" width="45" height="40" as="geometry" />
        </mxCell>
        <mxCell id="525DgajzJBLlcjMBCuLn-5" value="" style="shape=partialRectangle;html=1;whiteSpace=wrap;connectable=0;fillColor=#d5e8d4;top=0;left=0;bottom=0;right=0;overflow=hidden;strokeColor=#82b366;" vertex="1" parent="525DgajzJBLlcjMBCuLn-2">
          <mxGeometry x="684" width="46" height="40" as="geometry" />
        </mxCell>
        <mxCell id="525DgajzJBLlcjMBCuLn-6" value="" style="shape=partialRectangle;html=1;whiteSpace=wrap;collapsible=0;dropTarget=0;pointerEvents=0;fillColor=none;top=0;left=0;bottom=0;right=0;points=[[0,0.5],[1,0.5]];portConstraint=eastwest;" vertex="1" parent="525DgajzJBLlcjMBCuLn-1">
          <mxGeometry y="80" width="730" height="40" as="geometry" />
        </mxCell>
        <mxCell id="525DgajzJBLlcjMBCuLn-68" style="shape=partialRectangle;html=1;whiteSpace=wrap;connectable=0;fillColor=#f8cecc;top=0;left=0;bottom=0;right=0;overflow=hidden;strokeColor=#b85450;" vertex="1" parent="525DgajzJBLlcjMBCuLn-6">
          <mxGeometry width="46" height="40" as="geometry" />
        </mxCell>
        <mxCell id="525DgajzJBLlcjMBCuLn-64" style="shape=partialRectangle;html=1;whiteSpace=wrap;connectable=0;fillColor=#f8cecc;top=0;left=0;bottom=0;right=0;overflow=hidden;strokeColor=#b85450;" vertex="1" parent="525DgajzJBLlcjMBCuLn-6">
          <mxGeometry x="46" width="45" height="40" as="geometry" />
        </mxCell>
        <mxCell id="525DgajzJBLlcjMBCuLn-60" style="shape=partialRectangle;html=1;whiteSpace=wrap;connectable=0;fillColor=#f8cecc;top=0;left=0;bottom=0;right=0;overflow=hidden;strokeColor=#b85450;" vertex="1" parent="525DgajzJBLlcjMBCuLn-6">
          <mxGeometry x="91" width="46" height="40" as="geometry" />
        </mxCell>
        <mxCell id="525DgajzJBLlcjMBCuLn-56" style="shape=partialRectangle;html=1;whiteSpace=wrap;connectable=0;fillColor=#f8cecc;top=0;left=0;bottom=0;right=0;overflow=hidden;strokeColor=#b85450;" vertex="1" parent="525DgajzJBLlcjMBCuLn-6">
          <mxGeometry x="137" width="46" height="40" as="geometry" />
        </mxCell>
        <mxCell id="525DgajzJBLlcjMBCuLn-52" style="shape=partialRectangle;html=1;whiteSpace=wrap;connectable=0;fillColor=#f8cecc;top=0;left=0;bottom=0;right=0;overflow=hidden;strokeColor=#b85450;" vertex="1" parent="525DgajzJBLlcjMBCuLn-6">
          <mxGeometry x="183" width="45" height="40" as="geometry" />
        </mxCell>
        <mxCell id="525DgajzJBLlcjMBCuLn-36" style="shape=partialRectangle;html=1;whiteSpace=wrap;connectable=0;fillColor=#f8cecc;top=0;left=0;bottom=0;right=0;overflow=hidden;strokeColor=#b85450;" vertex="1" parent="525DgajzJBLlcjMBCuLn-6">
          <mxGeometry x="228" width="46" height="40" as="geometry" />
        </mxCell>
        <mxCell id="525DgajzJBLlcjMBCuLn-33" style="shape=partialRectangle;html=1;whiteSpace=wrap;connectable=0;fillColor=#f8cecc;top=0;left=0;bottom=0;right=0;overflow=hidden;strokeColor=#b85450;" vertex="1" parent="525DgajzJBLlcjMBCuLn-6">
          <mxGeometry x="274" width="45" height="40" as="geometry" />
        </mxCell>
        <mxCell id="525DgajzJBLlcjMBCuLn-30" style="shape=partialRectangle;html=1;whiteSpace=wrap;connectable=0;fillColor=#f8cecc;top=0;left=0;bottom=0;right=0;overflow=hidden;strokeColor=#b85450;" vertex="1" parent="525DgajzJBLlcjMBCuLn-6">
          <mxGeometry x="319" width="46" height="40" as="geometry" />
        </mxCell>
        <mxCell id="525DgajzJBLlcjMBCuLn-27" style="shape=partialRectangle;html=1;whiteSpace=wrap;connectable=0;fillColor=#f8cecc;top=0;left=0;bottom=0;right=0;overflow=hidden;strokeColor=#b85450;" vertex="1" parent="525DgajzJBLlcjMBCuLn-6">
          <mxGeometry x="365" width="46" height="40" as="geometry" />
        </mxCell>
        <mxCell id="525DgajzJBLlcjMBCuLn-24" style="shape=partialRectangle;html=1;whiteSpace=wrap;connectable=0;fillColor=#f8cecc;top=0;left=0;bottom=0;right=0;overflow=hidden;strokeColor=#b85450;" vertex="1" parent="525DgajzJBLlcjMBCuLn-6">
          <mxGeometry x="411" width="45" height="40" as="geometry" />
        </mxCell>
        <mxCell id="525DgajzJBLlcjMBCuLn-21" style="shape=partialRectangle;html=1;whiteSpace=wrap;connectable=0;fillColor=#f8cecc;top=0;left=0;bottom=0;right=0;overflow=hidden;strokeColor=#b85450;" vertex="1" parent="525DgajzJBLlcjMBCuLn-6">
          <mxGeometry x="456" width="46" height="40" as="geometry" />
        </mxCell>
        <mxCell id="525DgajzJBLlcjMBCuLn-18" style="shape=partialRectangle;html=1;whiteSpace=wrap;connectable=0;fillColor=#f8cecc;top=0;left=0;bottom=0;right=0;overflow=hidden;strokeColor=#b85450;" vertex="1" parent="525DgajzJBLlcjMBCuLn-6">
          <mxGeometry x="502" width="46" height="40" as="geometry" />
        </mxCell>
        <mxCell id="525DgajzJBLlcjMBCuLn-15" style="shape=partialRectangle;html=1;whiteSpace=wrap;connectable=0;fillColor=#f8cecc;top=0;left=0;bottom=0;right=0;overflow=hidden;strokeColor=#b85450;" vertex="1" parent="525DgajzJBLlcjMBCuLn-6">
          <mxGeometry x="548" width="45" height="40" as="geometry" />
        </mxCell>
        <mxCell id="525DgajzJBLlcjMBCuLn-7" value="" style="shape=partialRectangle;html=1;whiteSpace=wrap;connectable=0;fillColor=#f8cecc;top=0;left=0;bottom=0;right=0;overflow=hidden;strokeColor=#b85450;" vertex="1" parent="525DgajzJBLlcjMBCuLn-6">
          <mxGeometry x="593" width="46" height="40" as="geometry" />
        </mxCell>
        <mxCell id="525DgajzJBLlcjMBCuLn-8" value="" style="shape=partialRectangle;html=1;whiteSpace=wrap;connectable=0;fillColor=#f8cecc;top=0;left=0;bottom=0;right=0;overflow=hidden;strokeColor=#b85450;" vertex="1" parent="525DgajzJBLlcjMBCuLn-6">
          <mxGeometry x="639" width="45" height="40" as="geometry" />
        </mxCell>
        <mxCell id="525DgajzJBLlcjMBCuLn-9" value="" style="shape=partialRectangle;html=1;whiteSpace=wrap;connectable=0;fillColor=#f8cecc;top=0;left=0;bottom=0;right=0;overflow=hidden;strokeColor=#b85450;" vertex="1" parent="525DgajzJBLlcjMBCuLn-6">
          <mxGeometry x="684" width="46" height="40" as="geometry" />
        </mxCell>
        <mxCell id="525DgajzJBLlcjMBCuLn-10" value="" style="shape=partialRectangle;html=1;whiteSpace=wrap;collapsible=0;dropTarget=0;pointerEvents=0;fillColor=none;top=0;left=0;bottom=0;right=0;points=[[0,0.5],[1,0.5]];portConstraint=eastwest;" vertex="1" parent="525DgajzJBLlcjMBCuLn-1">
          <mxGeometry y="120" width="730" height="40" as="geometry" />
        </mxCell>
        <mxCell id="525DgajzJBLlcjMBCuLn-69" style="shape=partialRectangle;html=1;whiteSpace=wrap;connectable=0;fillColor=#fff2cc;top=0;left=0;bottom=0;right=0;overflow=hidden;strokeColor=#d6b656;" vertex="1" parent="525DgajzJBLlcjMBCuLn-10">
          <mxGeometry width="46" height="40" as="geometry" />
        </mxCell>
        <mxCell id="525DgajzJBLlcjMBCuLn-65" style="shape=partialRectangle;html=1;whiteSpace=wrap;connectable=0;fillColor=#fff2cc;top=0;left=0;bottom=0;right=0;overflow=hidden;strokeColor=#d6b656;" vertex="1" parent="525DgajzJBLlcjMBCuLn-10">
          <mxGeometry x="46" width="45" height="40" as="geometry" />
        </mxCell>
        <mxCell id="525DgajzJBLlcjMBCuLn-61" style="shape=partialRectangle;html=1;whiteSpace=wrap;connectable=0;fillColor=#fff2cc;top=0;left=0;bottom=0;right=0;overflow=hidden;strokeColor=#d6b656;" vertex="1" parent="525DgajzJBLlcjMBCuLn-10">
          <mxGeometry x="91" width="46" height="40" as="geometry" />
        </mxCell>
        <mxCell id="525DgajzJBLlcjMBCuLn-57" style="shape=partialRectangle;html=1;whiteSpace=wrap;connectable=0;fillColor=#fff2cc;top=0;left=0;bottom=0;right=0;overflow=hidden;strokeColor=#d6b656;" vertex="1" parent="525DgajzJBLlcjMBCuLn-10">
          <mxGeometry x="137" width="46" height="40" as="geometry" />
        </mxCell>
        <mxCell id="525DgajzJBLlcjMBCuLn-53" style="shape=partialRectangle;html=1;whiteSpace=wrap;connectable=0;fillColor=#fff2cc;top=0;left=0;bottom=0;right=0;overflow=hidden;strokeColor=#d6b656;" vertex="1" parent="525DgajzJBLlcjMBCuLn-10">
          <mxGeometry x="183" width="45" height="40" as="geometry" />
        </mxCell>
        <mxCell id="525DgajzJBLlcjMBCuLn-37" style="shape=partialRectangle;html=1;whiteSpace=wrap;connectable=0;fillColor=#fff2cc;top=0;left=0;bottom=0;right=0;overflow=hidden;strokeColor=#d6b656;" vertex="1" parent="525DgajzJBLlcjMBCuLn-10">
          <mxGeometry x="228" width="46" height="40" as="geometry" />
        </mxCell>
        <mxCell id="525DgajzJBLlcjMBCuLn-34" style="shape=partialRectangle;html=1;whiteSpace=wrap;connectable=0;fillColor=#fff2cc;top=0;left=0;bottom=0;right=0;overflow=hidden;strokeColor=#d6b656;" vertex="1" parent="525DgajzJBLlcjMBCuLn-10">
          <mxGeometry x="274" width="45" height="40" as="geometry" />
        </mxCell>
        <mxCell id="525DgajzJBLlcjMBCuLn-31" style="shape=partialRectangle;html=1;whiteSpace=wrap;connectable=0;fillColor=#fff2cc;top=0;left=0;bottom=0;right=0;overflow=hidden;strokeColor=#d6b656;" vertex="1" parent="525DgajzJBLlcjMBCuLn-10">
          <mxGeometry x="319" width="46" height="40" as="geometry" />
        </mxCell>
        <mxCell id="525DgajzJBLlcjMBCuLn-28" style="shape=partialRectangle;html=1;whiteSpace=wrap;connectable=0;fillColor=#fff2cc;top=0;left=0;bottom=0;right=0;overflow=hidden;strokeColor=#d6b656;" vertex="1" parent="525DgajzJBLlcjMBCuLn-10">
          <mxGeometry x="365" width="46" height="40" as="geometry" />
        </mxCell>
        <mxCell id="525DgajzJBLlcjMBCuLn-25" style="shape=partialRectangle;html=1;whiteSpace=wrap;connectable=0;fillColor=#fff2cc;top=0;left=0;bottom=0;right=0;overflow=hidden;strokeColor=#d6b656;" vertex="1" parent="525DgajzJBLlcjMBCuLn-10">
          <mxGeometry x="411" width="45" height="40" as="geometry" />
        </mxCell>
        <mxCell id="525DgajzJBLlcjMBCuLn-22" style="shape=partialRectangle;html=1;whiteSpace=wrap;connectable=0;fillColor=#fff2cc;top=0;left=0;bottom=0;right=0;overflow=hidden;strokeColor=#d6b656;" vertex="1" parent="525DgajzJBLlcjMBCuLn-10">
          <mxGeometry x="456" width="46" height="40" as="geometry" />
        </mxCell>
        <mxCell id="525DgajzJBLlcjMBCuLn-19" style="shape=partialRectangle;html=1;whiteSpace=wrap;connectable=0;fillColor=#fff2cc;top=0;left=0;bottom=0;right=0;overflow=hidden;strokeColor=#d6b656;" vertex="1" parent="525DgajzJBLlcjMBCuLn-10">
          <mxGeometry x="502" width="46" height="40" as="geometry" />
        </mxCell>
        <mxCell id="525DgajzJBLlcjMBCuLn-16" style="shape=partialRectangle;html=1;whiteSpace=wrap;connectable=0;fillColor=#fff2cc;top=0;left=0;bottom=0;right=0;overflow=hidden;strokeColor=#d6b656;" vertex="1" parent="525DgajzJBLlcjMBCuLn-10">
          <mxGeometry x="548" width="45" height="40" as="geometry" />
        </mxCell>
        <mxCell id="525DgajzJBLlcjMBCuLn-11" value="" style="shape=partialRectangle;html=1;whiteSpace=wrap;connectable=0;fillColor=#fff2cc;top=0;left=0;bottom=0;right=0;overflow=hidden;strokeColor=#d6b656;" vertex="1" parent="525DgajzJBLlcjMBCuLn-10">
          <mxGeometry x="593" width="46" height="40" as="geometry" />
        </mxCell>
        <mxCell id="525DgajzJBLlcjMBCuLn-12" value="" style="shape=partialRectangle;html=1;whiteSpace=wrap;connectable=0;fillColor=#fff2cc;top=0;left=0;bottom=0;right=0;overflow=hidden;strokeColor=#d6b656;" vertex="1" parent="525DgajzJBLlcjMBCuLn-10">
          <mxGeometry x="639" width="45" height="40" as="geometry" />
        </mxCell>
        <mxCell id="525DgajzJBLlcjMBCuLn-13" value="" style="shape=partialRectangle;html=1;whiteSpace=wrap;connectable=0;fillColor=#fff2cc;top=0;left=0;bottom=0;right=0;overflow=hidden;strokeColor=#d6b656;" vertex="1" parent="525DgajzJBLlcjMBCuLn-10">
          <mxGeometry x="684" width="46" height="40" as="geometry" />
        </mxCell>
        <mxCell id="525DgajzJBLlcjMBCuLn-70" value="" style="endArrow=classic;html=1;" edge="1" parent="1">
          <mxGeometry width="50" height="50" relative="1" as="geometry">
            <mxPoint x="770" y="260" as="sourcePoint" />
            <mxPoint x="710" y="260" as="targetPoint" />
          </mxGeometry>
        </mxCell>
        <mxCell id="525DgajzJBLlcjMBCuLn-71" value="" style="endArrow=classic;html=1;" edge="1" parent="1">
          <mxGeometry width="50" height="50" relative="1" as="geometry">
            <mxPoint x="770" y="300" as="sourcePoint" />
            <mxPoint x="220" y="300" as="targetPoint" />
          </mxGeometry>
        </mxCell>
        <mxCell id="525DgajzJBLlcjMBCuLn-72" value="" style="endArrow=classic;html=1;" edge="1" parent="1">
          <mxGeometry width="50" height="50" relative="1" as="geometry">
            <mxPoint x="770" y="340" as="sourcePoint" />
            <mxPoint x="180" y="340" as="targetPoint" />
          </mxGeometry>
        </mxCell>
        <mxCell id="525DgajzJBLlcjMBCuLn-146" value="$$\ll 1$$" style="text;html=1;strokeColor=none;fillColor=none;align=center;verticalAlign=middle;whiteSpace=wrap;rounded=0;fontSize=17;" vertex="1" parent="1">
          <mxGeometry x="720" y="240" width="40" height="20" as="geometry" />
        </mxCell>
        <mxCell id="525DgajzJBLlcjMBCuLn-147" value="&lt;div&gt;$$\ll 12$$&lt;/div&gt;" style="text;html=1;strokeColor=none;fillColor=none;align=center;verticalAlign=middle;whiteSpace=wrap;rounded=0;fontSize=17;" vertex="1" parent="1">
          <mxGeometry x="470" y="280" width="40" height="20" as="geometry" />
        </mxCell>
        <mxCell id="525DgajzJBLlcjMBCuLn-148" value="$$\ll 13$$" style="text;html=1;strokeColor=none;fillColor=none;align=center;verticalAlign=middle;whiteSpace=wrap;rounded=0;fontSize=17;" vertex="1" parent="1">
          <mxGeometry x="430" y="320" width="40" height="20" as="geometry" />
        </mxCell>
      </root>
    </mxGraphModel>
  </diagram>
</mxfile>
